<svg width="681" height="573" viewBox="0 0 681 573" fill="none" xmlns="http://www.w3.org/2000/svg">
<defs>
    <clipPath id="bgPath">
        <path d="M367 28C337.4 -20.8 152.619 2.39765 136 57C130.667 59.6667 118.6 67.6 113 78C106 91 110 105 113 132C115.4 153.6 105.333 166.333 100 170C39.4978 260.363 67 211 22 310C-23 409 12 474 62 540C112 606 211 553 256 534C301 515 304 495 396 510C488 525 577 489 626 449C675 409 697 342 665 235C633 128 594 204 490 152C461.333 131 396.6 76.8 367 28Z" fill="#C4C4C4" stroke="black"/>
    </clipPath>
    <clipPath id="bgPath2">
        <path d="M441 1C441 1 131.619 14.3976 115 68.9999C109.667 71.6666 13.6 68.5999 8 78.9999C0.999996 91.9999 181 129 184 156C186.4 177.6 136 156 79 182C49.0001 201 28.1736 216.702 1.00003 322C-6.99996 353 123 373 123 402C123 484.801 190 565 235 546C280 527 217 358 309 373C401 388 563 553 612 513C661 473 719 357 687 250C655 143 497 264 393 212C364.333 191 441 1 441 1Z" fill="#C4C4C4" stroke="black"/>
    </clipPath>
</defs>
</svg>
